<?xml version="1.0" standalone="no"?>
<!DOCTYPE svg PUBLIC "-//W3C//DTD SVG 20010904//EN"
 "http://www.w3.org/TR/2001/REC-SVG-20010904/DTD/svg10.dtd">
<svg version="1.0" xmlns="http://www.w3.org/2000/svg"
 width="2947.000000pt" height="2947.000000pt" viewBox="0 0 2947.000000 2947.000000"
 preserveAspectRatio="xMidYMid meet">
<metadata>
Created by potrace 1.14, written by Peter Selinger 2001-2017
</metadata>
<g transform="translate(0.000000,2947.000000) scale(0.100000,-0.100000)"
fill="#000000" stroke="none">
<path d="M5563 20962 c-43 -37 -113 -97 -154 -134 -40 -37 -123 -105 -184
-150 -60 -46 -195 -149 -300 -229 -260 -197 -423 -316 -571 -415 -101 -67
-145 -89 -232 -118 -107 -36 -298 -86 -334 -89 -20 -1 -20 -3 -3 -82 3 -16 10
-46 15 -65 5 -19 12 -51 15 -70 3 -19 8 -42 10 -50 2 -8 7 -37 11 -65 3 -27 8
-53 10 -57 3 -4 -23 -12 -57 -19 l-61 -12 6 -31 c3 -17 10 -49 15 -71 29 -129
51 -253 58 -321 4 -44 8 -414 8 -824 l0 -745 -55 -27 c-30 -15 -70 -30 -89
-33 -99 -17 -272 -94 -355 -158 -62 -48 -70 -56 -228 -248 -289 -351 -338
-412 -338 -424 0 -7 6 -18 14 -24 11 -9 26 -5 70 19 69 37 156 67 222 76 47 6
48 6 33 -12 -33 -40 -126 -152 -159 -194 -19 -24 -77 -94 -127 -156 -51 -61
-93 -118 -93 -126 0 -35 22 -38 74 -10 88 48 129 62 236 80 128 22 272 -21
377 -113 136 -120 257 -357 302 -595 21 -107 23 -126 36 -250 11 -116 13 -616
2 -665 -3 -11 -8 -42 -11 -70 -21 -158 -105 -418 -177 -550 -43 -80 -128 -189
-149 -193 -23 -4 -239 207 -356 347 -225 269 -405 575 -553 941 -35 85 -67
164 -71 175 -69 170 -144 482 -184 765 -36 252 -39 555 -7 742 27 158 27 158
45 243 9 39 17 81 20 95 17 99 117 493 181 715 26 88 48 165 49 170 2 12 12
42 101 315 64 195 152 440 180 505 8 17 26 59 40 95 126 305 255 500 476 719
l80 79 -32 75 c-20 45 -37 73 -43 69 -6 -3 -67 -49 -134 -101 -180 -139 -171
-134 -143 -86 62 103 251 328 350 418 32 29 41 43 36 58 -14 43 -57 129 -64
129 -7 0 -37 -21 -81 -57 -8 -7 -193 -150 -410 -318 -217 -168 -402 -311 -410
-318 -8 -7 -44 -35 -80 -62 -36 -27 -72 -55 -80 -62 -8 -7 -80 -63 -160 -124
-80 -61 -150 -116 -157 -123 -7 -6 -57 -144 -113 -306 -56 -162 -114 -333
-131 -380 -16 -47 -31 -92 -34 -100 -2 -8 -43 -123 -90 -255 -108 -300 -176
-524 -199 -655 -3 -14 -5 -25 -6 -25 -1 0 -3 -11 -6 -25 -2 -14 -9 -47 -14
-75 -5 -27 -12 -63 -15 -80 -3 -16 -7 -41 -10 -55 -3 -14 -7 -41 -10 -60 -3
-19 -7 -44 -9 -55 -2 -11 -7 -49 -11 -85 -4 -36 -8 -67 -10 -70 -2 -3 -6 -42
-10 -88 -4 -46 -8 -96 -10 -110 -2 -15 -6 -65 -10 -112 -4 -47 -9 -94 -11
-104 -2 -11 -6 -49 -9 -85 -3 -36 -7 -79 -9 -96 -4 -27 -13 -154 -22 -285 -5
-82 -5 -624 1 -695 19 -254 32 -394 40 -425 2 -8 7 -39 10 -69 4 -30 9 -63 11
-75 2 -12 7 -37 10 -56 10 -63 34 -177 39 -191 2 -8 7 -26 10 -41 3 -16 7 -40
10 -55 12 -59 87 -307 124 -410 74 -206 178 -429 287 -613 41 -71 169 -263
195 -295 9 -11 54 -67 100 -124 78 -98 284 -312 375 -391 445 -383 954 -662
1589 -870 108 -35 292 -89 355 -105 125 -30 223 -46 420 -70 25 -3 133 -8 240
-11 107 -4 197 -8 200 -11 3 -2 5 -149 5 -326 l0 -322 100 0 100 0 0 205 c0
199 1 204 21 210 20 5 21 12 22 105 1 153 -1 145 25 143 27 -1 209 12 357 27
246 25 524 125 765 273 239 149 383 284 1026 963 24 26 105 111 181 190 75 79
155 164 178 189 23 25 93 99 156 166 63 67 123 132 133 146 l20 25 -40 39 -40
39 -32 -36 c-18 -19 -52 -59 -76 -88 -25 -30 -50 -59 -55 -65 -6 -6 -38 -43
-71 -81 -167 -196 -422 -429 -540 -495 -103 -58 -168 -91 -221 -115 l-59 -26
47 48 c76 79 239 249 543 568 106 111 229 241 315 332 l94 100 73 -77 c74 -78
178 -157 268 -203 48 -24 184 -70 242 -82 49 -10 256 -14 300 -6 l42 8 -32
-44 c-55 -78 -177 -226 -229 -281 -28 -29 -49 -54 -47 -55 4 -3 191 -85 342
-151 41 -18 56 -29 51 -38 -15 -25 -152 -193 -202 -248 l-50 -54 107 -47 c58
-25 216 -94 350 -153 133 -59 246 -105 249 -101 7 6 7 8 16 95 18 182 104 572
201 910 20 69 38 134 40 145 3 11 9 31 14 45 6 14 18 54 27 88 14 52 19 61 27
46 11 -19 24 -72 33 -132 10 -67 53 -222 85 -300 112 -283 291 -471 544 -575
139 -57 244 -72 455 -65 92 3 311 68 415 122 92 50 104 57 185 115 245 177
441 470 520 779 40 158 49 246 45 437 -2 94 -6 181 -9 195 -3 13 -8 42 -11 65
-11 76 -65 280 -100 375 -20 52 -47 144 -61 205 -23 104 -74 276 -94 320 -20
43 -204 475 -235 550 -18 44 -45 106 -59 139 -14 32 -26 63 -26 68 0 5 -10 30
-21 56 -53 114 -94 260 -115 402 -3 19 -9 60 -14 90 -5 30 -12 80 -15 110 -3
30 -8 71 -10 90 -11 93 -23 355 -25 537 l0 42 -42 -40 c-62 -58 -78 -65 -79
-37 0 13 -2 37 -3 53 -5 52 -19 367 -19 438 0 37 -2 67 -5 67 -2 0 -48 -37
-101 -83 -458 -395 -872 -643 -1398 -838 -59 -22 -115 -43 -123 -46 -8 -3 -19
-7 -25 -9 -5 -1 -44 -15 -85 -29 -41 -15 -201 -70 -355 -122 -154 -53 -298
-104 -319 -114 -22 -11 -43 -19 -47 -19 -7 0 -116 -52 -204 -97 -51 -27 -207
-133 -275 -188 -310 -251 -498 -573 -558 -955 -9 -60 -9 -302 1 -368 19 -137
44 -218 112 -367 13 -27 26 -74 29 -103 4 -30 11 -75 17 -100 6 -26 12 -56 15
-66 9 -48 40 -129 81 -214 l45 -93 -58 -67 c-121 -140 -351 -371 -419 -420 -5
-4 -29 -22 -51 -40 -23 -17 -45 -32 -49 -32 -4 0 -19 -9 -34 -20 -40 -28 -273
-143 -366 -180 -226 -91 -473 -157 -690 -186 -27 -3 -59 -8 -69 -10 -88 -16
-470 -23 -641 -10 -114 8 -238 25 -255 36 -11 7 -13 560 -13 3174 0 1741 -3
3166 -6 3167 -3 1 -48 2 -98 3 -88 2 -93 1 -94 -18 -1 -12 -1 -105 -1 -208 0
-186 -1 -188 -22 -188 l-21 0 0 -2956 c0 -1626 -2 -2957 -5 -2959 -3 -2 -80
14 -170 36 -91 21 -175 41 -187 44 -63 15 -333 100 -438 138 -243 89 -475 199
-638 303 l-77 50 67 63 c328 303 450 454 579 713 96 191 179 468 208 688 3 25
8 56 10 70 3 14 7 48 10 75 4 28 8 61 11 75 2 14 7 57 10 95 3 39 7 86 9 105
2 19 7 67 11 105 7 81 14 144 20 200 11 94 20 199 30 350 22 326 24 378 41
895 3 102 7 785 8 1519 l1 1333 50 44 c27 24 53 44 58 44 6 0 38 -28 72 -62
48 -50 238 -220 290 -261 295 -231 621 -358 962 -372 123 -6 213 10 344 59 89
33 317 145 349 171 8 6 41 27 73 46 85 49 82 47 201 128 259 175 505 371 647
514 76 78 142 150 145 160 4 13 0 23 -10 29 -9 5 -25 19 -36 31 l-20 21 -37
-35 c-21 -19 -42 -39 -48 -45 -74 -78 -296 -197 -406 -218 -13 -2 -44 -9 -69
-15 -25 -6 -58 -11 -75 -11 l-30 0 33 23 c19 12 124 89 235 171 164 121 232
180 361 310 l159 160 -43 38 -43 38 -51 -49 c-155 -151 -350 -243 -573 -274
-136 -18 -350 -15 -483 8 -14 2 -41 6 -60 9 -91 13 -294 70 -317 88 -7 6 -13
8 -13 5 0 -15 -297 146 -320 174 -3 3 -15 12 -28 18 -32 17 -291 188 -378 249
l-72 51 -79 -67z m-574 -734 c34 -34 61 -64 60 -67 0 -8 -257 -201 -266 -201
-5 0 -8 46 -8 103 l0 103 70 62 c39 33 73 61 77 61 4 1 34 -27 67 -61z m-1393
-6517 c-3 -4 -10 -21 -16 -36 -9 -23 -13 -25 -26 -14 -13 11 -12 15 8 35 23
22 44 32 34 15z m6168 -104 c-25 -43 -47 -77 -49 -77 -2 0 3 24 11 53 9 37 23
60 46 79 18 14 34 25 36 24 1 -2 -18 -37 -44 -79z"/>
<path d="M19270 20161 c-138 -46 -360 -151 -550 -261 -36 -20 -110 -61 -165
-90 -55 -30 -140 -75 -188 -101 -110 -60 -332 -169 -412 -202 -153 -63 -294
-95 -495 -111 -65 -6 -100 -17 -120 -41 -22 -26 14 -52 82 -59 151 -15 297
-104 344 -208 14 -32 15 -41 4 -48 -23 -14 -212 -50 -295 -56 -44 -3 -89 -7
-100 -8 -31 -4 -73 -27 -80 -44 -9 -23 24 -51 59 -51 63 2 163 -27 231 -67 55
-32 121 -101 141 -149 17 -38 18 -191 19 -2535 1 -2410 1 -2497 -17 -2544 -11
-27 -46 -98 -78 -157 -33 -59 -60 -116 -60 -126 0 -20 30 -56 73 -88 15 -11
27 -26 27 -34 0 -8 -31 -74 -70 -147 -38 -73 -70 -141 -70 -151 0 -23 37 -59
215 -205 176 -145 222 -198 393 -450 85 -124 193 -245 228 -254 18 -5 42 7
101 47 163 110 548 416 677 539 175 166 195 226 64 195 -76 -17 -118 -13 -174
20 l-48 28 30 24 c143 120 250 223 299 287 23 31 25 38 14 52 -10 12 -23 14
-54 9 -96 -16 -132 -16 -166 -2 -59 24 -153 111 -244 224 -183 229 -267 380
-281 509 -4 33 -6 1186 -6 2564 l0 2505 31 83 c38 106 70 160 130 221 91 92
250 133 340 87 44 -23 105 -98 146 -181 20 -41 42 -75 48 -76 42 -4 72 0 75
10 2 6 8 11 12 11 13 0 71 51 151 134 146 148 173 276 83 393 l-25 33 39 52
c51 69 74 122 80 180 6 64 -32 142 -88 183 -23 17 -47 35 -54 42 -21 18 -116
43 -165 43 -25 -1 -84 -13 -131 -29z m-105 -396 l38 -29 -39 -13 c-65 -22
-356 -164 -452 -220 l-43 -25 26 58 c50 113 111 185 194 225 62 31 97 38 172
36 56 -2 72 -7 104 -32z"/>
<path d="M13345 19711 c-70 -32 -142 -98 -217 -198 -103 -138 -135 -194 -170
-297 -33 -99 -40 -214 -19 -294 10 -35 9 -47 -4 -70 -45 -79 -62 -252 -34
-354 54 -202 277 -364 553 -403 211 -29 390 12 602 141 140 85 232 160 396
326 148 148 173 180 164 203 -4 12 -12 12 -53 -6 -95 -41 -217 -70 -318 -76
l-100 -6 89 67 c118 90 276 240 399 381 55 62 31 80 -58 40 -48 -21 -165 -53
-223 -60 -61 -8 -196 -8 -232 -1 -13 3 -42 8 -65 12 -81 11 -230 70 -327 128
-68 40 -173 128 -207 172 -43 57 -81 150 -96 239 -13 79 -20 84 -80 56z"/>
<path d="M16138 18567 c-53 -46 -324 -248 -428 -319 -236 -163 -494 -298 -668
-349 -32 -9 -48 -21 -59 -43 -25 -48 -153 -236 -282 -414 -66 -90 -118 -171
-117 -180 1 -9 18 -25 37 -35 27 -14 48 -17 107 -12 l73 5 -36 -47 c-106 -144
-203 -281 -214 -301 -17 -31 -8 -49 31 -66 32 -13 76 -13 193 -2 28 3 77 8
110 11 136 13 157 15 203 20 129 15 161 13 204 -8 33 -17 46 -31 56 -61 10
-30 12 -347 9 -1510 -1 -809 -6 -1484 -10 -1501 -4 -16 -17 -73 -28 -125 -43
-204 -72 -326 -82 -347 -9 -21 -11 -21 -23 -6 -11 15 -11 14 -7 -10 6 -32 5
-31 44 -11 17 8 33 13 35 11 3 -2 -2 -33 -10 -68 -8 -35 -29 -125 -46 -199
-35 -156 -44 -176 -59 -140 -10 24 -10 24 -7 -5 4 -36 7 -35 102 9 72 34 72
34 102 16 19 -12 43 -44 67 -92 98 -198 236 -383 415 -556 119 -117 174 -143
287 -137 65 3 184 58 275 128 58 44 355 291 373 311 6 6 43 40 83 75 39 34 72
69 72 77 0 17 -44 40 -93 48 -43 7 -141 52 -159 73 -13 16 -12 16 102 113 36
30 74 64 86 75 11 11 39 36 62 56 23 20 42 44 42 52 0 19 -49 43 -106 52 -126
20 -371 252 -597 567 -51 71 -85 151 -101 233 -4 17 -9 41 -11 55 -14 72 -20
212 -19 460 0 320 13 1040 29 1670 7 284 13 568 14 667 1 61 2 61 128 78 26 4
58 8 69 10 59 9 152 76 324 234 159 146 273 263 297 304 10 17 17 45 15 60
l-3 29 -72 -6 c-147 -11 -222 -18 -237 -22 -8 -2 55 63 140 145 162 155 207
209 210 251 4 51 4 52 -57 46 -32 -3 -87 -9 -123 -12 -96 -10 -297 -11 -360
-3 -30 5 -97 11 -150 15 -52 3 -101 10 -109 14 -12 6 -15 58 -17 296 -1 159
-4 298 -7 309 -3 11 -6 25 -6 31 -2 22 -59 9 -93 -19z"/>
<path d="M22448 17724 c-2 -1 -15 -5 -28 -7 -107 -20 -302 -163 -538 -398
-165 -163 -213 -230 -192 -269 10 -18 18 -20 79 -14 57 5 75 2 115 -16 26 -13
45 -24 44 -26 -2 -1 -54 -55 -116 -119 -105 -109 -172 -194 -172 -219 1 -33
19 -40 94 -37 55 2 83 -2 108 -15 48 -24 145 -96 206 -152 48 -43 54 -53 60
-102 4 -30 7 -237 6 -460 -2 -223 -4 -751 -6 -1175 -1 -423 -6 -802 -10 -840
-8 -80 -47 -221 -80 -293 -134 -292 -349 -309 -698 -54 -157 115 -352 300
-374 354 -18 46 -15 2309 4 2378 7 25 13 52 15 60 2 8 8 35 14 60 7 25 14 56
17 70 2 14 6 30 8 36 2 6 -5 30 -15 54 -20 44 -20 81 1 134 5 15 12 39 15 54
3 15 7 36 10 47 6 28 32 135 34 140 9 31 -317 524 -444 670 -74 86 -192 130
-283 105 -93 -24 -246 -165 -417 -381 -155 -196 -206 -273 -212 -319 -5 -34
-3 -40 13 -41 32 -1 67 -9 116 -25 50 -16 52 -27 15 -66 -20 -21 -143 -190
-166 -228 -11 -19 -21 -49 -21 -66 0 -31 2 -32 55 -39 110 -13 236 -101 315
-218 38 -57 99 -187 112 -237 35 -141 35 -164 34 -1308 l-1 -1127 -24 -55
c-14 -30 -37 -74 -52 -97 -15 -23 -29 -56 -31 -73 -2 -27 4 -37 40 -68 l42
-37 -20 -74 c-22 -77 -44 -127 -84 -185 -31 -46 -26 -81 17 -120 84 -75 254
-234 389 -362 241 -231 474 -338 653 -302 116 23 304 142 455 288 15 14 62 58
106 99 43 40 148 139 233 220 193 183 244 231 253 231 3 0 20 -38 37 -85 32
-88 72 -272 116 -537 31 -186 32 -192 40 -248 3 -25 8 -56 10 -70 8 -46 19
-184 18 -233 -1 -97 -89 -317 -181 -456 -50 -75 -193 -219 -267 -268 -229
-154 -498 -211 -840 -179 -91 8 -112 12 -223 41 -407 107 -707 366 -850 730
-22 55 -22 143 -2 256 16 87 15 118 -2 136 -14 13 -19 13 -45 0 -60 -32 -153
-150 -266 -342 -92 -156 -167 -344 -187 -467 -9 -58 -7 -215 3 -225 3 -2 -7
-41 -20 -86 -45 -151 -38 -335 19 -470 114 -274 430 -493 778 -541 93 -13 292
-9 420 9 385 54 793 246 1175 554 436 352 772 724 971 1076 47 82 142 299 160
365 35 125 60 292 69 455 3 50 12 133 21 185 19 112 25 356 12 455 -10 77 -73
350 -113 490 -14 50 -27 97 -30 105 -39 158 -69 292 -89 415 -16 90 -19 267
-19 1157 0 817 3 981 14 997 8 11 84 77 169 147 171 140 375 320 488 429 47
45 82 71 99 72 14 1 33 8 42 16 25 21 69 37 102 37 32 0 129 -45 129 -59 0 -5
-46 -51 -102 -102 -56 -52 -139 -129 -185 -173 l-82 -78 26 -33 26 -32 66 34
c65 33 67 34 112 20 98 -30 208 -134 323 -305 118 -177 190 -340 204 -467 4
-33 7 -519 6 -1080 l-1 -1020 -27 -90 c-38 -125 -44 -180 -21 -205 22 -25 16
-86 -25 -226 -45 -152 -43 -167 31 -239 86 -85 149 -171 287 -400 198 -326
204 -335 247 -360 50 -30 91 -38 119 -23 55 28 336 227 372 262 6 6 33 30 60
53 27 23 59 50 70 60 12 10 67 56 124 102 56 47 106 95 111 109 18 46 13 52
-43 52 -29 0 -71 6 -93 13 -47 15 -121 53 -129 66 -4 5 36 44 86 86 51 42 115
96 141 119 27 22 54 46 61 51 6 6 17 27 23 47 l11 37 -36 -3 c-97 -8 -203 37
-299 127 -111 104 -208 260 -255 409 l-22 73 -2 1115 -2 1115 25 48 c13 27 41
72 61 100 20 29 49 71 64 94 34 50 123 143 161 168 70 45 163 34 277 -35 240
-144 473 -448 548 -715 30 -105 32 -169 32 -1086 l0 -942 -36 -71 c-20 -39
-45 -80 -55 -92 -12 -13 -19 -35 -19 -61 0 -39 1 -41 37 -48 65 -12 73 -20 61
-62 -20 -75 -122 -268 -136 -259 -4 2 -7 -8 -6 -22 1 -15 3 -37 3 -49 1 -17 7
-23 24 -23 36 0 119 -44 162 -86 63 -60 94 -111 209 -344 147 -298 220 -383
340 -395 58 -6 62 -4 211 109 262 199 437 345 543 454 80 82 98 110 100 158 2
35 13 34 -120 20 -57 -6 -75 -4 -115 14 l-48 21 45 37 c67 55 208 192 242 235
20 24 32 54 35 81 l5 43 -53 -8 c-141 -19 -207 1 -316 96 -152 130 -259 294
-322 490 -14 45 -16 216 -18 1564 -2 833 -5 1517 -7 1519 -2 2 -36 -10 -74
-27 -39 -17 -75 -31 -80 -31 -5 0 -36 33 -69 73 -33 40 -87 102 -120 138 -32
35 -88 100 -124 144 -84 104 -232 253 -292 294 -91 62 -153 50 -302 -57 -120
-85 -234 -187 -605 -542 -280 -268 -273 -263 -284 -237 -49 113 -158 329 -204
402 -206 328 -403 545 -497 545 -44 0 -90 -36 -263 -204 -81 -79 -163 -158
-182 -176 -19 -18 -64 -60 -100 -94 -148 -138 -154 -143 -201 -140 -29 1 -66
-8 -118 -31 -131 -55 -271 -98 -271 -81 0 2 46 44 102 92 129 111 190 167 295
271 73 72 83 86 83 117 0 61 -59 68 -165 20 -112 -51 -214 -81 -278 -83 -135
-4 -304 51 -487 159 -141 83 -239 130 -292 140 -21 4 -39 6 -40 4z m3171 -809
c8 -4 0 -18 -23 -38 -19 -18 -105 -99 -191 -182 -276 -264 -319 -304 -324
-299 -2 2 15 43 39 90 84 171 246 379 330 425 27 15 49 19 96 15 34 -2 67 -7
73 -11z m-3599 -3628 c-48 -161 -120 -273 -208 -325 -42 -24 -57 -27 -134 -27
-47 0 -90 4 -95 8 -4 5 17 31 47 59 88 82 351 331 379 359 35 36 38 16 11 -74z
m244 -1994 c-123 -330 -416 -592 -735 -659 -92 -19 -132 -25 -194 -30 -38 -3
-87 -7 -107 -8 -21 -2 -35 1 -32 6 3 4 10 8 15 8 33 0 362 176 472 253 55 37
182 131 187 137 3 3 39 32 80 64 41 33 82 67 91 75 9 9 45 41 80 71 34 30 86
76 113 102 28 26 52 48 53 48 2 0 -9 -30 -23 -67z"/>
<path d="M13330 17658 c-34 -21 -81 -53 -104 -71 -51 -39 -169 -138 -176 -146
-36 -45 -353 -271 -379 -271 -5 0 -11 -16 -13 -36 -4 -32 1 -41 64 -103 38
-38 85 -83 104 -100 l36 -30 -123 -81 c-160 -104 -161 -108 -46 -218 198 -189
192 -181 261 -323 70 -147 110 -257 126 -352 12 -72 9 -2103 -3 -2152 -4 -16
-12 -43 -16 -60 -5 -16 -21 -82 -36 -147 -27 -114 -27 -117 -11 -170 l17 -54
-39 -155 c-29 -117 -36 -161 -29 -179 38 -99 227 -439 302 -545 178 -249 366
-298 600 -157 171 103 424 323 588 514 53 61 57 69 46 90 -18 34 -25 36 -82
21 -28 -7 -63 -13 -78 -13 -28 0 -87 18 -104 31 -7 5 47 67 140 162 173 177
185 193 160 230 -16 24 -18 25 -53 13 -64 -22 -137 -20 -190 5 -56 27 -181
120 -235 175 -71 72 -138 205 -153 299 -4 28 -7 608 -7 1291 l0 1242 23 57
c13 31 43 95 67 142 49 96 47 113 -16 113 -52 0 -63 10 -52 46 20 65 64 171
102 243 60 116 60 119 -14 128 -34 4 -65 6 -69 5 -8 -2 -46 48 -158 208 -201
288 -300 393 -367 387 -11 0 -48 -18 -83 -39z"/>
</g>
</svg>
